<svg width="60" height="72" viewBox="0 0 60 72" fill="none" xmlns="http://www.w3.org/2000/svg">
<path fill-rule="evenodd" clip-rule="evenodd" d="M28.9471 71.1198C29.2326 71.2855 29.5562 71.3742 29.8863 71.3771C30.2167 71.3774 30.5413 71.2913 30.8282 71.1275L58.8152 55.1397C59.1061 54.9742 59.3478 54.7346 59.516 54.4453C59.6841 54.1561 59.7726 53.8274 59.7725 53.4928V17.8527C59.7723 17.5179 59.6837 17.189 59.5156 16.8993C59.3475 16.6097 59.1059 16.3696 58.8152 16.2033L30.8256 0.248874C30.539 0.0857649 30.2148 0 29.885 0C29.5553 0 29.2311 0.0857649 28.9445 0.248874L0.957422 16.2033C0.662936 16.3717 0.418878 16.6159 0.250557 16.9104C0.0822357 17.205 -0.00421908 17.5392 0.000158345 17.8785L0.29094 53.7038C0.294099 54.0363 0.384392 54.3622 0.552811 54.6489C0.721231 54.9356 0.961889 55.1732 1.25078 55.3378L28.9471 71.1198ZM29.8838 67.3062L4.07882 52.5921L3.80348 18.9593L29.8863 4.07278L55.9769 18.9644V52.4017L29.8838 67.3062ZM17.5062 42.2938C17.7927 42.4615 18.1186 42.5503 18.4506 42.5511C18.8688 42.5521 19.2756 42.4149 19.6077 42.1607C19.9398 41.9066 20.1786 41.5498 20.287 41.1458C20.3953 40.7419 20.367 40.3135 20.2067 39.9272C20.0463 39.541 19.7627 39.2186 19.4001 39.0103L11.1296 34.2523V24.5458L29.8863 13.8461L48.5323 24.4866V28.7171C48.5504 29.2083 48.7583 29.6734 49.1122 30.0146C49.4661 30.3557 49.9385 30.5463 50.4301 30.5463C50.9217 30.5463 51.3941 30.3557 51.748 30.0146C52.1019 29.6734 52.3098 29.2083 52.3279 28.7171V23.3853C52.3278 23.0507 52.2392 22.7221 52.071 22.4329C51.9029 22.1437 51.6613 21.904 51.3706 21.7383L30.8255 10.0119C30.5389 9.84877 30.2148 9.763 29.885 9.763C29.5552 9.763 29.2311 9.84877 28.9444 10.0119L8.29122 21.7975C8.00058 21.9632 7.75894 22.2028 7.59082 22.4921C7.4227 22.7813 7.33408 23.1099 7.33396 23.4444V35.3485C7.33375 35.6821 7.4217 36.0099 7.58889 36.2987C7.75609 36.5874 7.9966 36.8269 8.28608 36.9928L17.5062 42.2938ZM29.8504 61.6887C29.5185 61.6866 29.193 61.5979 28.906 61.4314L8.28621 49.5942C7.99608 49.4289 7.75491 49.1896 7.58722 48.9008C7.41954 48.612 7.33131 48.2839 7.33152 47.9499V42.8033C7.34962 42.3121 7.55748 41.847 7.91141 41.5059C8.26534 41.1648 8.73776 40.9742 9.22932 40.9742C9.72089 40.9742 10.1933 41.1648 10.5472 41.5059C10.9012 41.847 11.109 42.3121 11.1271 42.8033V46.8691L29.8504 57.6049L48.5299 46.8974V37.6053L40.1281 32.7161C39.9127 32.591 39.724 32.4248 39.5728 32.2268C39.4216 32.0289 39.3109 31.8031 39.247 31.5623C39.183 31.3216 39.1672 31.0706 39.2002 30.8237C39.2333 30.5768 39.3147 30.3389 39.4397 30.1235C39.5648 29.908 39.731 29.7193 39.929 29.5682C40.1269 29.417 40.3527 29.3063 40.5935 29.2423C41.0797 29.1133 41.5972 29.1826 42.0323 29.4351L51.3811 34.8596C51.6684 35.0267 51.9068 35.2662 52.0725 35.5543C52.2383 35.8424 52.3255 36.169 52.3255 36.5014V47.9885C52.3252 48.3224 52.2367 48.6502 52.0691 48.939C51.9014 49.2277 51.6606 49.4671 51.3708 49.6329L30.7845 61.4288C30.5008 61.5948 30.179 61.6844 29.8504 61.6887ZM23.5788 46.783C23.9344 47.139 24.4167 47.3394 24.92 47.3401C25.4223 47.3387 25.9036 47.1384 26.2586 46.783C26.6136 46.4275 26.8132 45.9459 26.8139 45.4436V31.8052L28.3399 33.3054C28.5427 33.5053 28.788 33.657 29.0575 33.7492C29.327 33.8413 29.6138 33.8716 29.8966 33.8377C30.1795 33.8038 30.451 33.7067 30.6911 33.5535C30.9313 33.4003 31.1338 33.195 31.2837 32.9528L32.8431 30.431V40.8503C32.8612 41.3415 33.0691 41.8066 33.423 42.1477C33.7769 42.4889 34.2494 42.6795 34.7409 42.6795C35.2325 42.6795 35.7049 42.4889 36.0588 42.1477C36.4128 41.8066 36.6206 41.3415 36.6387 40.8503V23.7559C36.638 23.3433 36.503 22.9422 36.254 22.6132C36.0051 22.2842 35.6557 22.0452 35.2589 21.9324C34.862 21.8196 34.4392 21.8391 34.0544 21.988C33.6696 22.1368 33.3438 22.4069 33.1262 22.7575L29.3074 28.9334L26.2478 25.9226C25.9816 25.6616 25.6444 25.4848 25.2783 25.4144C24.9122 25.3439 24.5335 25.383 24.1894 25.5266C23.8454 25.6702 23.5513 25.912 23.3439 26.2218C23.1366 26.5316 23.0251 26.8956 23.0235 27.2685V45.441C23.0235 45.9442 23.2232 46.4269 23.5788 46.783Z" fill="white"/>
</svg>
